HIERARCHY
ROOT Hips
{
	OFFSET -3.958830 18.904000 13.208200
	CHANNELS 6 Xposition Yposition Zposition Zrotation Yrotation Xrotation 
	JOINT LHipJoint
	{
		OFFSET 0.000000 0.000000 0.000000
		CHANNELS 3 Zrotation Yrotation Xrotation
		JOINT LeftUpLeg
		{
			OFFSET 1.800000 -1.400000 0.085000
			CHANNELS 3 Zrotation Yrotation Xrotation
			JOINT LeftLeg
			{
				OFFSET 2.215000 -6.000000 0.000000
				CHANNELS 3 Zrotation Yrotation Xrotation
				JOINT LeftFoot
				{
					OFFSET 2.500000 -6.900000 0.000000
					CHANNELS 3 Zrotation Yrotation Xrotation
					JOINT LeftToeBase
					{
						OFFSET 0.200000 -0.500000 1.950000
						CHANNELS 3 Zrotation Yrotation Xrotation
						End Site
						{
							OFFSET 0.000000 0.000000 0.000000
						}
					}
				}
			}
		}
	}
	JOINT RHipJoint
	{
		OFFSET 0.000000 0.000000 0.000000
		CHANNELS 3 Zrotation Yrotation Xrotation
		JOINT RightUpLeg
		{
			OFFSET -1.800000 -1.400000 0.085000
			CHANNELS 3 Zrotation Yrotation Xrotation
			JOINT RightLeg
			{
				OFFSET -2.215000 -6.000000 0.000000
				CHANNELS 3 Zrotation Yrotation Xrotation
				JOINT RightFoot
				{
					OFFSET -2.500000 -6.900000 0.000000
					CHANNELS 3 Zrotation Yrotation Xrotation
					JOINT RightToeBase
					{
						OFFSET -0.200000 -0.500000 1.950000
						CHANNELS 3 Zrotation Yrotation Xrotation
						End Site
						{
							OFFSET 0.000000 0.000000 0.000000
						}
					}
				}
			}
		}
	}
	JOINT LowerBack
	{
		OFFSET 0.000000 0.000000 0.000000
		CHANNELS 3 Zrotation Yrotation Xrotation
		JOINT Spine
		{
			OFFSET -0.087000 1.940000 -0.288900
			CHANNELS 3 Zrotation Yrotation Xrotation
			JOINT Spine1
			{
				OFFSET 0.000000 1.950000 0.060000
				CHANNELS 3 Zrotation Yrotation Xrotation
				JOINT Neck
				{
					OFFSET 0.000000 0.000000 0.000000
					CHANNELS 3 Zrotation Yrotation Xrotation
					JOINT Neck1
					{
						OFFSET 0.000000 1.600000 0.340000
						CHANNELS 3 Zrotation Yrotation Xrotation
						JOINT Head
						{
							OFFSET 0.000000 1.667000 -0.240000
							CHANNELS 3 Zrotation Yrotation Xrotation
							End Site
							{
								OFFSET 0.000000 0.000000 0.000000
							}
						}
					}
				}
				JOINT LeftShoulder
				{
					OFFSET 0.000000 0.000000 0.000000
					CHANNELS 3 Zrotation Yrotation Xrotation
					JOINT LeftArm
					{
						OFFSET 2.700000 1.550000 -0.730000
						CHANNELS 3 Zrotation Yrotation Xrotation
						JOINT LeftForeArm
						{
							OFFSET 5.450000 0.000000 0.000000
							CHANNELS 3 Zrotation Yrotation Xrotation
							JOINT LeftHand
							{
								OFFSET 3.450000 0.000000 0.000000
								CHANNELS 3 Zrotation Yrotation Xrotation
								JOINT LeftHandIndex1
								{
									OFFSET 0.750000 0.000000 0.000000
									CHANNELS 3 Zrotation Yrotation Xrotation
									End Site
									{
										OFFSET 0.000000 0.000000 0.000000
									}
								}
							}
						}
					}
				}
				JOINT RightShoulder
				{
					OFFSET 0.000000 0.000000 0.000000
					CHANNELS 3 Zrotation Yrotation Xrotation
					JOINT RightArm
					{
						OFFSET -2.700000 1.550000 -0.730000
						CHANNELS 3 Zrotation Yrotation Xrotation
						JOINT RightForeArm
						{
							OFFSET -5.450000 0.000000 0.000000
							CHANNELS 3 Zrotation Yrotation Xrotation
							JOINT RightHand
							{
								OFFSET -3.450000 0.000000 0.000000
								CHANNELS 3 Zrotation Yrotation Xrotation
								JOINT RightHandIndex1
								{
									OFFSET -0.750000 0.000000 0.000000
									CHANNELS 3 Zrotation Yrotation Xrotation
									End Site
									{
										OFFSET 0.000000 0.000000 0.000000
									}
								}
							}
						}
					}
				}
			}
		}
	}
}
MOTION
Frames: 14
Frame Time: 0.016667
0.455370 16.651820 6.025090 -172.043308 16.875956 -178.051999 -15.172289 12.876651 4.459224 -8.820362 -4.451007 -37.131594 -2.532117 2.646187 5.663521 -1.335496 2.020253 4.051860 -0.268700 -0.858920 -0.347870 18.145358 -10.380592 3.532555 2.139632 -1.616208 6.772244 12.436393 -7.299072 7.245733 -0.747661 -4.598377 3.190803 -0.483390 0.541360 -0.008090 -3.182188 -2.306044 -8.845036 15.669207 5.260334 23.250795 -2.406264 11.174321 -20.156808 1.858332 -12.012535 -13.059268 -25.420568 16.783881 56.254966 4.786610 3.203840 -16.195560 -22.297748 13.237868 -1.388130 -57.956272 23.554239 -7.553020 6.669832 6.737250 0.090724 -3.906033 1.725312 1.448030 -0.159980 -0.014910 0.193890 17.298562 5.532171 9.722391 65.836590 -2.012719 -8.969269 -124.361362 71.684338 -121.952384 2.174672 -0.183160 -0.799670 0.699690 0.564230 -0.300270 
0.493360 16.640170 5.926100 -172.462036 17.138286 -177.977604 -15.165501 12.804846 4.483814 -9.642198 -4.569508 -36.082373 -3.846524 2.670969 4.674043 -1.347485 2.044823 4.048610 -0.251680 -0.840560 -0.321670 18.148943 -10.407574 3.561515 1.745515 -1.583014 7.561234 12.499685 -7.327003 6.714828 -0.790010 -4.657954 3.168310 -0.472660 0.524500 -0.005270 -3.190423 -2.150855 -8.903434 15.168903 5.290405 23.103530 -2.467842 10.998901 -19.954863 1.740588 -11.874831 -13.333928 -24.819187 16.689448 57.792840 4.681080 3.729840 -17.519670 -22.822344 11.991169 -0.684798 -55.915159 24.422036 -7.122209 6.825693 6.896045 0.149041 -3.885597 1.713378 1.478230 -0.172100 0.009780 0.190240 18.052719 6.654871 9.674666 64.902105 -1.013916 -7.299901 -112.211434 70.114686 -102.395331 2.230963 1.642932 -0.804920 0.712560 0.558140 -0.314770 
0.537240 16.629880 5.825070 -173.238028 17.534423 -178.217696 -15.138809 12.711669 4.486114 -10.350965 -4.648580 -34.838086 -5.074246 2.777003 4.499025 -1.349422 2.090681 4.022573 -0.219230 -0.803590 -0.284290 18.170065 -10.491893 3.575921 0.875063 -1.390336 8.324468 12.613805 -7.415184 6.483373 -0.839953 -4.748051 3.121423 -0.455830 0.487640 0.003070 -3.249100 -1.859160 -8.926507 14.366853 5.455591 23.021727 -2.770781 10.691388 -19.343160 1.587617 -11.667373 -13.477083 -24.250263 16.534526 59.147057 5.001170 4.131920 -19.590740 -22.936674 10.876907 -0.034684 -53.986163 24.716453 -6.716358 6.931863 6.942729 0.159014 -3.849315 1.736968 1.506960 -0.197780 0.041820 0.181530 18.536182 7.399810 9.519422 64.571321 0.981905 -10.518290 -100.375246 73.702284 -82.506185 1.374423 4.496934 -0.795680 0.706080 0.544710 -0.330080 
0.585790 16.639290 5.715300 -174.359483 17.750236 -178.769946 -15.135153 12.646618 4.471300 -11.106579 -4.719225 -33.192772 -6.282794 2.964432 4.778152 -1.373422 2.187412 3.979137 -0.180400 -0.760590 -0.227380 18.168827 -10.551404 3.582140 -0.137283 -1.185084 9.316795 12.624717 -7.493976 6.147252 -0.900248 -4.826960 3.077743 -0.424510 0.443310 -0.007580 -3.248491 -1.653869 -8.917136 13.074405 5.818946 22.713225 -2.731196 10.548403 -18.497684 1.446073 -11.430793 -14.019692 -24.127797 16.687047 62.023506 5.307720 4.408520 -22.276990 -23.862720 9.222731 0.558746 -51.540761 24.484709 -5.666657 6.948845 8.427424 0.367661 -3.809182 1.718396 1.565110 -0.236810 0.086670 0.166550 19.945847 8.655454 9.675791 63.192179 2.376780 -17.225355 -86.490758 79.218447 -68.519517 0.629424 4.504358 -0.809400 0.737580 0.533900 -0.359320 
0.633780 16.657020 5.610120 -175.039833 17.956216 -179.591948 -15.110004 12.634318 4.410629 -11.450284 -4.562534 -31.329898 -6.805161 3.098660 5.194041 -1.384328 2.248377 3.936652 -0.117780 -0.681630 -0.164150 18.186788 -10.615703 3.603083 -0.705561 -1.152543 10.470334 12.366285 -7.594952 6.177180 -0.979734 -4.911029 3.019938 -0.382490 0.374970 -0.007740 -3.307086 -1.506219 -8.877037 12.982436 5.821916 22.768120 -3.243299 10.399245 -16.427931 1.543678 -11.486281 -15.080464 -24.967330 17.278927 64.542571 4.971330 4.726410 -25.628990 -25.302817 6.259275 1.615062 -49.953953 24.246760 -5.205804 7.589538 8.055731 0.395378 -3.732620 1.751076 1.616230 -0.291390 0.149730 0.155450 21.453169 11.446253 10.445969 61.636612 3.709866 -20.331728 -75.526541 79.540871 -58.992807 0.696250 3.027739 -0.795020 0.752840 0.510690 -0.378360 
0.679900 16.672890 5.490800 -175.558638 17.911256 -179.787499 -15.069079 12.575635 4.404200 -11.963501 -4.581226 -30.043035 -6.849217 3.129527 5.438778 -1.395443 2.281150 3.916530 -0.106270 -0.670780 -0.143770 18.219191 -10.706579 3.627873 -1.030455 -1.100000 10.987535 12.139476 -7.659713 6.180223 -1.008725 -4.963371 2.999335 -0.376210 0.351360 0.003880 -3.408441 -1.243623 -8.890481 12.997516 6.043018 22.536256 -4.077902 10.354297 -15.571642 1.444752 -11.134298 -15.574600 -23.978708 16.747259 66.131779 4.506840 4.939080 -26.880170 -25.817171 4.728853 2.268292 -47.610618 24.349427 -4.854441 7.772202 6.762956 0.199181 -3.706664 1.759544 1.638870 -0.298460 0.171140 0.141520 22.121006 12.614701 10.865373 61.344375 4.021164 -21.291959 -65.590766 77.899102 -50.440835 0.879725 1.859398 -0.790640 0.752390 0.515900 -0.395800 
0.729550 16.680510 5.360930 -176.046690 17.662507 -179.426305 -15.019139 12.471233 4.429117 -12.429242 -4.771832 -29.334646 -6.985274 3.185766 5.737207 -1.387100 2.306603 3.914148 -0.129120 -0.686950 -0.158340 18.267500 -10.805224 3.641532 -1.156044 -1.154335 11.043574 11.750763 -7.622277 5.982254 -1.003404 -4.970209 3.003666 -0.383870 0.367860 -0.000200 -3.547856 -0.916784 -8.906199 12.807459 6.219518 21.829366 -4.664765 10.081116 -15.434624 1.012678 -10.856611 -15.713800 -22.938984 16.219895 66.041545 4.988040 5.218430 -26.530310 -24.571484 4.289561 2.641186 -46.589379 23.724974 -4.714820 8.935208 5.627005 0.205865 -3.720318 1.770212 1.630850 -0.283080 0.162540 0.136380 21.601664 12.652672 11.107832 62.161758 3.826747 -21.268216 -56.733934 76.246324 -43.298506 1.034499 1.151270 -0.800080 0.757230 0.525190 -0.395590 
0.788090 16.695220 5.225360 -176.807861 17.135495 -178.951638 -15.011436 12.380508 4.483343 -13.062809 -5.086851 -28.813081 -7.158030 3.288024 6.285535 -1.376429 2.353141 3.906757 -0.152090 -0.720210 -0.162270 18.274746 -10.880928 3.627168 -1.371377 -1.134463 10.764672 11.417294 -7.593313 5.986373 -0.988545 -4.950607 3.016079 -0.403790 0.385250 0.005060 -3.565321 -0.667105 -8.946777 11.473337 6.743698 21.061335 -4.444632 9.956394 -16.271685 0.482612 -10.277731 -15.630727 -21.344909 15.270209 66.355622 5.412210 5.313230 -25.734280 -22.877025 4.625207 2.769826 -45.600548 23.207471 -4.719186 9.676037 4.013830 0.068190 -3.733635 1.775185 1.631550 -0.266580 0.154410 0.133740 20.886255 11.728853 11.073030 63.206509 2.654883 -21.074893 -47.942655 74.220895 -36.013338 1.155212 0.637695 -0.811060 0.752730 0.531490 -0.401120 
0.841220 16.707110 5.092170 -177.273471 16.506993 -178.531494 -14.991186 12.312116 4.501465 -13.432999 -5.229904 -28.149783 -7.107974 3.351199 6.720745 -1.392201 2.413856 3.889096 -0.187210 -0.764420 -0.184870 18.295198 -10.954413 3.623237 -1.373676 -1.147711 10.466698 11.222133 -7.595586 6.135045 -0.958138 -4.952402 3.024116 -0.415280 0.414640 0.005290 -3.623591 -0.442634 -8.971570 10.891851 7.025466 20.070402 -4.478275 9.825023 -16.039408 0.247738 -9.788442 -15.604285 -20.031714 14.348563 66.141227 5.258310 5.184240 -24.407870 -21.853819 4.251256 3.063388 -44.974894 22.758146 -4.924412 10.234239 1.625530 -0.233181 -3.757375 1.782135 1.621570 -0.233480 0.124370 0.121550 20.292810 11.533308 11.000252 63.680005 2.393309 -20.529705 -42.190698 70.935203 -30.323261 1.217987 0.345267 -0.833200 0.755790 0.561340 -0.410860 
0.891490 16.720010 4.960000 -177.758426 15.887134 -178.104135 -14.969008 12.242739 4.527024 -13.835324 -5.376348 -27.497354 -7.059302 3.420864 7.184869 -1.392912 2.452946 3.877300 -0.211760 -0.787490 -0.190790 18.315589 -11.040336 3.614267 -1.387564 -1.149221 9.976610 11.054517 -7.591590 6.415968 -0.932233 -4.925972 3.039666 -0.422220 0.425140 -0.002710 -3.681716 -0.193628 -9.001625 10.203851 7.433178 19.152506 -4.658158 9.753162 -16.263195 -0.028687 -8.971099 -15.480801 -18.143259 13.037496 66.713177 5.177860 4.895590 -23.350990 -20.647251 4.134679 3.244730 -44.040028 22.224340 -5.134398 10.060632 -0.771057 -0.575012 -3.763245 1.771887 1.611030 -0.213530 0.110940 0.108910 19.547829 10.799596 10.773465 64.818504 1.680864 -20.147569 -37.060051 66.889602 -25.050665 1.280553 0.139262 -0.846110 0.759830 0.573170 -0.418540 
0.931740 16.739800 4.826880 -177.819551 14.973559 -177.826320 -14.929747 12.230065 4.512252 -13.794245 -5.313528 -26.692165 -7.238346 3.538589 7.633276 -1.394144 2.527167 3.849641 -0.215970 -0.792550 -0.185770 18.349054 -11.108524 3.627233 -0.996218 -1.273864 9.664986 10.723838 -7.564300 6.708286 -0.925292 -4.888358 3.050376 -0.419980 0.426380 -0.002560 -3.789145 -0.032626 -9.008188 10.568681 7.496301 18.475996 -5.208666 9.647041 -16.296618 -0.249728 -8.578787 -15.421518 -17.292040 12.301569 67.509868 5.445020 4.549180 -23.299640 -19.875929 4.025352 3.407400 -43.190831 21.932656 -5.479130 9.957824 -4.260818 -1.000933 -3.742574 1.774799 1.616960 -0.208280 0.112160 0.101280 19.047293 10.476924 10.563319 65.280019 1.470579 -19.283010 -32.458220 62.251105 -20.268324 1.339294 -0.007915 -0.853450 0.766230 0.579610 -0.426420 
0.974940 16.761650 4.696710 -177.731394 13.888757 -177.752684 -14.906480 12.273380 4.456869 -13.448583 -5.084925 -25.676557 -7.278866 3.643622 8.030337 -1.403298 2.615756 3.814349 -0.212510 -0.792900 -0.183740 18.366253 -11.145936 3.643279 -0.451610 -1.412269 9.478436 10.511036 -7.582518 7.188025 -0.925849 -4.867928 3.052826 -0.413460 0.430040 0.002470 -3.854774 0.002816 -8.991179 11.037332 7.461205 17.828820 -5.293458 9.630896 -15.893685 -0.425153 -8.520190 -15.439401 -17.437562 12.060099 68.435732 5.919300 3.991930 -23.453370 -19.816707 3.767244 3.624046 -42.652755 22.046779 -6.027890 10.060582 -8.695972 -1.486748 -3.707686 1.794336 1.629660 -0.205960 0.114040 0.096780 19.288672 10.563712 10.404227 64.621343 1.422539 -18.454937 -29.773753 58.626971 -17.325253 1.370954 -0.079958 -0.859500 0.776080 0.591090 -0.433130 
1.023400 16.776160 4.571530 -177.709737 12.512908 -177.572927 -14.899846 12.314210 4.412742 -13.071791 -4.905907 -24.814611 -7.292120 3.751067 8.402730 -1.422277 2.706203 3.780769 -0.233870 -0.829690 -0.178090 18.366463 -11.189514 3.650506 0.249645 -1.565318 9.028487 10.247662 -7.610005 7.946973 -0.907746 -4.824598 3.062043 -0.423360 0.430420 -0.001920 -3.872588 0.053880 -8.985254 10.858321 7.406833 17.410125 -5.208876 9.444353 -16.241956 -0.559442 -8.104288 -15.100425 -16.416322 11.070093 69.100734 5.669990 3.654210 -23.956490 -19.021955 4.366987 3.562356 -42.153045 22.152685 -6.706095 9.699989 -13.735534 -1.917314 -3.681037 1.798610 1.648440 -0.204060 0.105720 0.075760 18.596091 9.583182 9.870277 64.984461 1.512329 -17.125788 -26.515045 54.058883 -13.967894 1.418153 -0.132516 -0.883540 0.784670 0.613840 -0.454350 
1.068660 16.793080 4.445590 -177.746107 10.905691 -177.347369 -14.897063 12.361312 4.383678 -12.707411 -4.813233 -24.059067 -7.307576 3.873688 8.924545 -1.449201 2.816330 3.742851 -0.251820 -0.873710 -0.169090 18.360409 -11.232215 3.642645 0.763853 -1.593950 8.323203 10.234580 -7.696789 8.993227 -0.889767 -4.789942 3.066792 -0.435820 0.437720 0.001560 -3.882042 0.080813 -8.984974 10.496039 7.193506 16.916703 -5.145101 9.002592 -16.988868 -0.704002 -7.607755 -14.793481 -15.282468 10.114055 69.880736 5.597020 3.316920 -23.974150 -18.008800 5.106602 3.439702 -41.779802 22.121142 -7.108959 9.278800 -17.629795 -2.158575 -3.670120 1.799431 1.677510 -0.198690 0.097490 0.060340 17.708391 8.291017 9.379369 65.685100 0.981855 -15.945693 -22.820290 49.792989 -10.874860 1.454994 -0.165342 -0.912200 0.792290 0.637270 -0.478560 
